<svg width="153" height="38" viewBox="0 0 153 38" fill="none" xmlns="http://www.w3.org/2000/svg">
<g clip-path="url(#clip0_68_159)">
<mask id="mask0_68_159" style="mask-type:luminance" maskUnits="userSpaceOnUse" x="0" y="0" width="153" height="38">
<path d="M153 0H0V38H153V0Z" fill="white"/>
</mask>
<g mask="url(#mask0_68_159)">
<path d="M0.878906 28.1814L0.878909 9.39355L10.2728 14.6124V23.0147L17.788 27.242L25.3031 23.0147V14.6124L34.6971 9.39355V28.1814L17.788 37.5753L0.878906 28.1814Z" fill="#A1A1A1"/>
<path fill-rule="evenodd" clip-rule="evenodd" d="M5.57588 12.0034L0.878906 9.39394L17.788 0L34.6971 9.39394L30.0001 12.0034V25.8333L17.788 32.8788L5.57587 25.8333L5.57588 12.0034ZM29.4913 12.2861L25.3031 14.6128V14.5606L17.788 10.3333L10.2728 14.5606V14.6128L6.08471 12.2861V25.5443L17.788 32.2962L29.4913 25.5443V12.2861Z" fill="#A1A1A1"/>
<path d="M43.7002 26.6968V10.915H46.6762V23.9913H53.8908V26.6968H43.7002Z" fill="#A1A1A1"/>
<path d="M60.3159 27.013C59.2037 27.013 58.2042 26.7876 57.3174 26.3366C56.4306 25.8857 55.7317 25.2319 55.2207 24.3752C54.7096 23.5185 54.4541 22.4889 54.4541 21.2865V20.9257C54.4541 19.7233 54.7096 18.6937 55.2207 17.837C55.7317 16.9803 56.4306 16.3265 57.3174 15.8756C58.2042 15.4246 59.2037 15.1992 60.3159 15.1992C61.4282 15.1992 62.4277 15.4246 63.3145 15.8756C64.2013 16.3265 64.9002 16.9803 65.4112 17.837C65.9222 18.6937 66.1778 19.7233 66.1778 20.9257V21.2865C66.1778 22.4889 65.9222 23.5185 65.4112 24.3752C64.9002 25.2319 64.2013 25.8857 63.3145 26.3366C62.4277 26.7876 61.4282 27.013 60.3159 27.013ZM60.3159 24.4879C61.1877 24.4879 61.9092 24.2099 62.4803 23.6537C63.0515 23.0826 63.337 22.2709 63.337 21.2188V20.9934C63.337 19.9413 63.0515 19.1371 62.4803 18.581C61.9242 18.0099 61.2027 17.7243 60.3159 17.7243C59.4442 17.7243 58.7227 18.0099 58.1516 18.581C57.5804 19.1371 57.2949 19.9413 57.2949 20.9934V21.2188C57.2949 22.2709 57.5804 23.0826 58.1516 23.6537C58.7227 24.2099 59.4442 24.4879 60.3159 24.4879Z" fill="#A1A1A1"/>
<path d="M67.2441 21.1512V20.7905C67.2441 19.6181 67.477 18.6186 67.943 17.7919C68.4089 16.9502 69.0252 16.3114 69.7917 15.8756C70.5733 15.4246 71.4225 15.1992 72.3393 15.1992C73.3614 15.1992 74.1355 15.3796 74.6615 15.7403C75.1876 16.101 75.5709 16.4768 75.8113 16.8676H76.2172V15.5148H79.0128V28.6814C79.0128 29.4479 78.7873 30.0566 78.3364 30.5076C77.8855 30.9735 77.2843 31.2065 76.5328 31.2065H69.0477V28.7265H75.5408C75.9616 28.7265 76.1721 28.501 76.1721 28.0501V25.1417H75.7662C75.6159 25.3822 75.4055 25.6302 75.135 25.8857C74.8644 26.1262 74.5037 26.3291 74.0528 26.4945C73.6019 26.6598 73.0307 26.7425 72.3393 26.7425C71.4225 26.7425 70.5733 26.5245 69.7917 26.0886C69.0252 25.6377 68.4089 24.9989 67.943 24.1723C67.477 23.3306 67.2441 22.3236 67.2441 21.1512ZM73.151 24.2625C74.0227 24.2625 74.7517 23.9844 75.3379 23.4283C75.9241 22.8722 76.2172 22.0906 76.2172 21.0836V20.8581C76.2172 19.836 75.9241 19.0545 75.3379 18.5134C74.7667 17.9573 74.0378 17.6792 73.151 17.6792C72.2792 17.6792 71.5502 17.9573 70.9641 18.5134C70.3779 19.0545 70.0848 19.836 70.0848 20.8581V21.0836C70.0848 22.0906 70.3779 22.8722 70.9641 23.4283C71.5502 23.9844 72.2792 24.2625 73.151 24.2625Z" fill="#A1A1A1"/>
<path d="M86.4682 27.013C85.3559 27.013 84.3564 26.7876 83.4696 26.3366C82.5828 25.8857 81.8839 25.2319 81.3729 24.3752C80.8619 23.5185 80.6064 22.4889 80.6064 21.2865V20.9257C80.6064 19.7233 80.8619 18.6937 81.3729 17.837C81.8839 16.9803 82.5828 16.3265 83.4696 15.8756C84.3564 15.4246 85.3559 15.1992 86.4682 15.1992C87.5804 15.1992 88.5799 15.4246 89.4667 15.8756C90.3535 16.3265 91.0524 16.9803 91.5634 17.837C92.0745 18.6937 92.33 19.7233 92.33 20.9257V21.2865C92.33 22.4889 92.0745 23.5185 91.5634 24.3752C91.0524 25.2319 90.3535 25.8857 89.4667 26.3366C88.5799 26.7876 87.5804 27.013 86.4682 27.013ZM86.4682 24.4879C87.3399 24.4879 88.0614 24.2099 88.6325 23.6537C89.2037 23.0826 89.4893 22.2709 89.4893 21.2188V20.9934C89.4893 19.9413 89.2037 19.1371 88.6325 18.581C88.0764 18.0099 87.355 17.7243 86.4682 17.7243C85.5964 17.7243 84.875 18.0099 84.3038 18.581C83.7327 19.1371 83.4471 19.9413 83.4471 20.9934V21.2188C83.4471 22.2709 83.7327 23.0826 84.3038 23.6537C84.875 24.2099 85.5964 24.4879 86.4682 24.4879Z" fill="#A1A1A1"/>
<path d="M93.938 26.6971V15.5145H96.7787V26.6971H93.938ZM95.3583 14.2069C94.8473 14.2069 94.4114 14.0416 94.0507 13.7109C93.705 13.3802 93.5322 12.9443 93.5322 12.4033C93.5322 11.8622 93.705 11.4263 94.0507 11.0956C94.4114 10.765 94.8473 10.5996 95.3583 10.5996C95.8844 10.5996 96.3203 10.765 96.666 11.0956C97.0117 11.4263 97.1845 11.8622 97.1845 12.4033C97.1845 12.9443 97.0117 13.3802 96.666 13.7109C96.3203 14.0416 95.8844 14.2069 95.3583 14.2069Z" fill="#A1A1A1"/>
<path d="M98.9121 31.2065V15.5148H101.708V16.8676H102.114C102.369 16.4317 102.767 16.0484 103.309 15.7177C103.85 15.372 104.624 15.1992 105.631 15.1992C106.533 15.1992 107.367 15.4246 108.133 15.8756C108.9 16.3114 109.516 16.9577 109.982 17.8145C110.448 18.6712 110.681 19.7083 110.681 20.9257V21.2865C110.681 22.5039 110.448 23.541 109.982 24.3977C109.516 25.2545 108.9 25.9083 108.133 26.3592C107.367 26.7951 106.533 27.013 105.631 27.013C104.954 27.013 104.383 26.9303 103.917 26.765C103.466 26.6147 103.098 26.4193 102.813 26.1788C102.542 25.9233 102.324 25.6678 102.159 25.4123H101.753V31.2065H98.9121ZM104.774 24.533C105.661 24.533 106.39 24.2549 106.961 23.6988C107.547 23.1277 107.84 22.301 107.84 21.2188V20.9934C107.84 19.9112 107.547 19.092 106.961 18.5359C106.375 17.9648 105.646 17.6792 104.774 17.6792C103.902 17.6792 103.173 17.9648 102.587 18.5359C102.001 19.092 101.708 19.9112 101.708 20.9934V21.2188C101.708 22.301 102.001 23.1277 102.587 23.6988C103.173 24.2549 103.902 24.533 104.774 24.533Z" fill="#A1A1A1"/>
<path d="M116.919 27.013C115.461 27.013 114.266 26.6974 113.334 26.0661C112.403 25.4348 111.839 24.533 111.643 23.3606L114.259 22.6843C114.364 23.2103 114.537 23.6237 114.777 23.9243C115.033 24.2249 115.341 24.4428 115.702 24.5781C116.077 24.6983 116.483 24.7585 116.919 24.7585C117.58 24.7585 118.069 24.6457 118.385 24.4203C118.7 24.1798 118.858 23.8867 118.858 23.541C118.858 23.1953 118.708 22.9323 118.407 22.7519C118.107 22.5565 117.626 22.3987 116.964 22.2785L116.333 22.1657C115.551 22.0154 114.837 21.8125 114.191 21.557C113.545 21.2865 113.026 20.9182 112.635 20.4523C112.245 19.9863 112.049 19.3851 112.049 18.6486C112.049 17.5364 112.455 16.6872 113.267 16.101C114.078 15.4998 115.146 15.1992 116.468 15.1992C117.716 15.1992 118.753 15.4773 119.579 16.0334C120.406 16.5895 120.947 17.3185 121.203 18.2203L118.565 19.0319C118.445 18.4608 118.197 18.0549 117.821 17.8145C117.46 17.574 117.009 17.4537 116.468 17.4537C115.927 17.4537 115.514 17.5514 115.228 17.7468C114.943 17.9272 114.8 18.1827 114.8 18.5134C114.8 18.8741 114.95 19.1446 115.251 19.325C115.551 19.4903 115.957 19.6181 116.468 19.7083L117.099 19.821C117.941 19.9713 118.7 20.1742 119.377 20.4297C120.068 20.6702 120.609 21.0234 121 21.4894C121.406 21.9403 121.609 22.5565 121.609 23.3381C121.609 24.5105 121.18 25.4198 120.323 26.0661C119.482 26.6974 118.347 27.013 116.919 27.013Z" fill="#A1A1A1"/>
<path d="M127.344 26.8775C126.473 26.8775 125.706 26.6821 125.045 26.2914C124.399 25.8855 123.895 25.3294 123.534 24.623C123.174 23.9166 122.993 23.1049 122.993 22.1881V15.5146H125.834V21.9626C125.834 22.8043 126.037 23.4356 126.443 23.8564C126.863 24.2773 127.457 24.4877 128.224 24.4877C129.095 24.4877 129.772 24.2021 130.253 23.631C130.734 23.0448 130.974 22.2332 130.974 21.1961V15.5146H133.815V26.6972H131.019V25.2317H130.614C130.433 25.6075 130.095 25.9757 129.599 26.3364C129.103 26.6972 128.351 26.8775 127.344 26.8775Z" fill="#A1A1A1"/>
<path d="M135.962 26.6969V15.5143H138.757V16.7318H139.163C139.358 16.356 139.682 16.0329 140.132 15.7623C140.583 15.4768 141.177 15.334 141.914 15.334C142.71 15.334 143.349 15.4918 143.83 15.8074C144.311 16.108 144.679 16.5063 144.935 17.0023H145.34C145.596 16.5214 145.957 16.1231 146.423 15.8074C146.889 15.4918 147.55 15.334 148.407 15.334C149.098 15.334 149.722 15.4843 150.278 15.7849C150.849 16.0704 151.3 16.5138 151.631 17.1151C151.976 17.7012 152.149 18.4452 152.149 19.3471V26.6969H149.308V19.55C149.308 18.9337 149.151 18.4753 148.835 18.1747C148.519 17.8591 148.076 17.7012 147.505 17.7012C146.859 17.7012 146.355 17.9117 145.994 18.3325C145.649 18.7383 145.476 19.3245 145.476 20.0911V26.6969H142.635V19.55C142.635 18.9337 142.477 18.4753 142.162 18.1747C141.846 17.8591 141.403 17.7012 140.831 17.7012C140.185 17.7012 139.682 17.9117 139.321 18.3325C138.975 18.7383 138.802 19.3245 138.802 20.0911V26.6969H135.962Z" fill="#A1A1A1"/>
</g>
</g>
<defs>
<clipPath id="clip0_68_159">
<rect width="153" height="38" fill="white"/>
</clipPath>
</defs>
</svg>
