<svg width="100" height="24" viewBox="0 0 100 24" fill="none" xmlns="http://www.w3.org/2000/svg">
<g clip-path="url(#clip0_353_180)">
<path fill-rule="evenodd" clip-rule="evenodd" d="M0 5.36845C0 2.40353 2.40353 0 5.36845 0H18.6617C21.6267 0 24.0302 2.40354 24.0302 5.36845V18.6617C24.0302 21.6267 21.6267 24.0302 18.6617 24.0302H5.36845C2.40353 24.0302 0 21.6267 0 18.6617V5.36845ZM17.3664 17.3664C12.2616 22.4713 5.73254 24.2189 2.78343 21.2698C-0.165681 18.3207 1.58191 11.7917 6.68679 6.68678C11.7917 1.58191 18.3207 -0.165679 21.2698 2.78343C24.2189 5.73254 22.4713 12.2616 17.3664 17.3664ZM19.173 5.62409C19.5966 5.62409 19.9399 5.28072 19.9399 4.85717C19.9399 4.43361 19.5966 4.09025 19.173 4.09025C18.7495 4.09025 18.4061 4.43361 18.4061 4.85717C18.4061 5.28072 18.7495 5.62409 19.173 5.62409Z" fill="black"/>
<path d="M89.9609 21.9471V19.4831H91.5229C91.9043 19.4831 92.1829 19.4244 92.3589 19.3071C92.5496 19.2044 92.6963 19.0138 92.7989 18.7351L93.0409 18.0531H92.1389L88.0029 6.8551H91.3689L94.0749 14.9731L96.6049 6.8551H99.9709L95.4389 19.7691C95.1749 20.5464 94.7936 21.1038 94.2949 21.4411C93.7963 21.7784 93.0996 21.9471 92.2049 21.9471H89.9609Z" fill="black"/>
<path d="M80.2734 18.6471V6.8551H83.3974L83.5074 10.2871L83.2654 10.2211C83.4561 9.0331 83.7934 8.1751 84.2774 7.6471C84.7614 7.1191 85.4288 6.8551 86.2794 6.8551H87.3574V9.5831H86.2794C85.6634 9.5831 85.1574 9.66377 84.7614 9.8251C84.3654 9.98644 84.0648 10.2431 83.8594 10.5951C83.6688 10.9471 83.5734 11.4238 83.5734 12.0251V18.6471H80.2734Z" fill="black"/>
<path d="M75.3852 18.6471C74.1678 18.6471 73.2732 18.3684 72.7012 17.8111C72.1292 17.2391 71.8432 16.3371 71.8432 15.1051V4.0831H75.1432V14.7091C75.1432 15.2811 75.2605 15.6698 75.4952 15.8751C75.7445 16.0804 76.1112 16.1831 76.5952 16.1831H78.2452V18.6471H75.3852ZM69.9512 9.3191V6.8551H78.2452V9.3191H69.9512Z" fill="black"/>
<path d="M63.6828 18.9111C62.4655 18.9111 61.4462 18.7424 60.6248 18.4051C59.8035 18.0531 59.1728 17.5838 58.7328 16.9971C58.3075 16.3958 58.0655 15.7064 58.0068 14.9291L61.3508 14.8191C61.4535 15.3764 61.6882 15.8091 62.0548 16.1171C62.4215 16.4251 62.9642 16.5791 63.6828 16.5791C64.2695 16.5791 64.7242 16.4838 65.0468 16.2931C65.3842 16.1024 65.5528 15.8091 65.5528 15.4131C65.5528 15.1638 65.4942 14.9584 65.3768 14.7971C65.2595 14.6211 65.0248 14.4744 64.6728 14.3571C64.3355 14.2251 63.8295 14.1078 63.1548 14.0051C61.9082 13.7851 60.9328 13.5284 60.2288 13.2351C59.5248 12.9418 59.0262 12.5604 58.7328 12.0911C58.4395 11.6218 58.2928 11.0498 58.2928 10.3751C58.2928 9.24576 58.7255 8.33643 59.5908 7.6471C60.4708 6.9431 61.7835 6.59109 63.5288 6.59109C64.6435 6.59109 65.5748 6.76709 66.3228 7.11909C67.0855 7.4711 67.6722 7.95509 68.0828 8.57109C68.5082 9.17243 68.7722 9.86176 68.8748 10.6391L65.5528 10.7711C65.5088 10.3898 65.3915 10.0671 65.2008 9.8031C65.0248 9.52443 64.7975 9.31176 64.5188 9.1651C64.2402 9.00376 63.9028 8.92309 63.5068 8.92309C62.9202 8.92309 62.4655 9.04776 62.1428 9.2971C61.8348 9.53176 61.6808 9.8471 61.6808 10.2431C61.6808 10.5364 61.7468 10.7784 61.8788 10.9691C62.0255 11.1451 62.2602 11.2918 62.5828 11.4091C62.9055 11.5264 63.3382 11.6218 63.8808 11.6951C65.1422 11.8711 66.1395 12.1204 66.8728 12.4431C67.6208 12.7511 68.1562 13.1398 68.4788 13.6091C68.8015 14.0784 68.9628 14.6578 68.9628 15.3471C68.9628 16.1098 68.7428 16.7551 68.3028 17.2831C67.8628 17.8111 67.2468 18.2144 66.4548 18.4931C65.6775 18.7718 64.7535 18.9111 63.6828 18.9111Z" fill="black"/>
<path d="M50.9733 18.9111C49.7707 18.9111 48.722 18.6618 47.8273 18.1631C46.9473 17.6498 46.258 16.9311 45.7593 16.0071C45.2753 15.0831 45.0333 13.9978 45.0333 12.7511C45.0333 11.5044 45.2753 10.4264 45.7593 9.5171C46.258 8.5931 46.9473 7.87443 47.8273 7.3611C48.7073 6.84776 49.7487 6.59109 50.9513 6.59109C52.1247 6.59109 53.144 6.84776 54.0093 7.3611C54.8747 7.87443 55.542 8.60776 56.0113 9.5611C56.4953 10.5144 56.7373 11.6511 56.7373 12.9711V13.6311H48.4433C48.4873 14.5698 48.7367 15.2664 49.1913 15.7211C49.6607 16.1758 50.2767 16.4031 51.0393 16.4031C51.5967 16.4031 52.0587 16.2858 52.4253 16.0511C52.8067 15.8164 53.078 15.4571 53.2393 14.9731L56.5613 15.1711C56.2533 16.3444 55.6007 17.2611 54.6033 17.9211C53.606 18.5811 52.396 18.9111 50.9733 18.9111ZM48.4433 11.6071H53.3493C53.3053 10.7418 53.0633 10.0964 52.6233 9.67109C52.198 9.24576 51.6407 9.0331 50.9513 9.0331C50.262 9.0331 49.69 9.26043 49.2353 9.7151C48.7953 10.1551 48.5313 10.7858 48.4433 11.6071Z" fill="black"/>
<path d="M36.3422 18.6471L32.0302 6.8551H35.4842L38.2782 15.3251L41.0502 6.8551H44.5042L40.1702 18.6471H36.3422Z" fill="black"/>
</g>
<defs>
<clipPath id="clip0_353_180">
<rect width="100" height="24" fill="white"/>
</clipPath>
</defs>
</svg>
